<mxfile host="app.diagrams.net" modified="2024-02-05T07:21:42.247Z" agent="Mozilla/5.0 (X11; Linux x86_64) AppleWebKit/537.36 (KHTML, like Gecko) Chrome/109.0.0.0 Safari/537.36" version="23.1.1" etag="v9W3dCCaOvxPJx212LQw" type="github">
  <diagram name="Page-1" id="BRSeQlrxyghB2XDfaymO">
    <mxGraphModel>
      <root>
        <mxCell id="0" />
        <mxCell id="1" parent="0" />
      </root>
    </mxGraphModel>
  </diagram>
</mxfile>
